# xmcd CD database file
#
# Track frame offsets:
#	150
#	19496
#	41229
#	58236
#	78483
#	98893
#	113329
#	134749
#	151709
#	172211
#	190388
#	217775
#	236520
#	255943
#	273481
#
# Disc length: 3877 seconds
#
# Revision: 0
# Processed by: cddbd v1.5.1PL2 Copyright (c) Steve Scherf et al.
# Submitted via: CDex 1.51
#
DISCID=d10f230f
DTITLE=Nicole Borger - Singrar-Sailing Songs
DYEAR=2005
DGENRE=Jazz
TTITLE0=Doce Ilusão
TTITLE1=Singrar
TTITLE2=Maria
TTITLE3=Na Boca Da Noite
TTITLE4=Recado De Iemanjá
TTITLE5=Azulao
TTITLE6=O Meu Amado É Meu
TTITLE7=Chegada
TTITLE8=Sentidos
TTITLE9=Meninas
TTITLE10=Tem Tempo
TTITLE11=Tears/lágrimas
TTITLE12=Metamorphosis
TTITLE13=Sailing Song
TTITLE14=Não Te Quero
EXTD=YEAR: 2005
EXTT0=
EXTT1=
EXTT2=
EXTT3=
EXTT4=
EXTT5=
EXTT6=
EXTT7=
EXTT8=
EXTT9=
EXTT10=
EXTT11=
EXTT12=
EXTT13=
EXTT14=
PLAYORDER=
